<svg width="417" height="106" viewBox="0 0 417 106" fill="none" xmlns="http://www.w3.org/2000/svg">
<path fill-rule="evenodd" clip-rule="evenodd" d="M49.8 53.4547C49.8 56.8751 49.5877 60.2459 49.1757 63.5547H0V83.5547H44.0151C41.1099 90.798 37.1874 97.5236 32.4243 103.555H100V83.5547H44.0151C46.547 77.2422 48.3061 70.5366 49.1757 63.5547H100V43.5547H49.2003C48.3486 36.5746 46.608 29.8691 44.095 23.5547H100V3.55469H32.5818C37.3175 9.58994 41.2139 16.3152 44.095 23.5547H0V43.5547H49.2003C49.5962 46.7993 49.8 50.1032 49.8 53.4547Z" fill="#C1C0B6"/>
<path d="M374.221 77.1823C376.804 85.5263 379.933 91.7346 383.608 95.8073C387.284 99.88 391.704 101.916 396.869 101.916C400.644 101.916 403.574 100.774 405.66 98.4893C407.846 96.2047 408.938 93.175 408.938 89.4003C408.938 85.427 408.094 82.149 406.405 79.5663C404.717 76.9837 402.581 74.7487 399.998 72.8613C397.416 70.974 394.634 69.186 391.654 67.4973C388.774 65.8086 385.992 63.971 383.31 61.9843C380.728 59.9976 378.592 57.6633 376.903 54.9813C375.215 52.2993 374.37 48.9717 374.37 44.9983C374.37 41.5217 375.165 38.4423 376.754 35.7603C378.344 32.979 380.529 30.7937 383.31 29.2043C386.092 27.615 389.27 26.8203 392.846 26.8203C395.131 26.8203 397.068 27.0686 398.657 27.5653C400.346 27.9626 401.737 28.4096 402.829 28.9063C404.021 29.3036 405.015 29.5023 405.809 29.5023C407.597 29.5023 408.69 28.8566 409.087 27.5653H410.13L412.365 50.5113H411.024C408.938 43.4586 406.405 38.2933 403.425 35.0153C400.445 31.638 396.869 29.9493 392.697 29.9493C389.32 29.9493 386.588 30.9426 384.502 32.9293C382.516 34.916 381.522 37.598 381.522 40.9753C381.522 43.9553 382.367 46.4883 384.055 48.5743C385.744 50.561 387.88 52.349 390.462 53.9383C393.144 55.5277 395.926 57.1667 398.806 58.8553C401.786 60.4446 404.568 62.332 407.15 64.5173C409.733 66.6033 411.869 69.186 413.557 72.2653C415.246 75.3447 416.09 79.169 416.09 83.7383C416.09 90.0957 414.302 95.261 410.726 99.2343C407.15 103.108 402.432 105.045 396.571 105.045C393.989 105.045 391.654 104.797 389.568 104.3C387.582 103.903 385.794 103.506 384.204 103.108C382.714 102.612 381.423 102.363 380.33 102.363C378.443 102.363 377.052 103.009 376.158 104.3H375.264L373.029 77.1823H374.221Z" fill="#C1C0B6"/>
<path d="M337.368 105.045C331.905 105.045 327.038 103.406 322.766 100.128C318.594 96.8503 315.316 92.281 312.932 86.4203C310.648 80.4603 309.505 73.6063 309.505 65.8583C309.505 58.011 310.648 51.2067 312.932 45.4453C315.217 39.5847 318.445 35.0153 322.617 31.7373C326.889 28.4593 331.756 26.8203 337.219 26.8203C342.782 26.8203 347.649 28.4593 351.821 31.7373C355.993 35.0153 359.222 39.5847 361.506 45.4453C363.89 51.2067 365.082 58.011 365.082 65.8583C365.082 73.6063 363.89 80.4603 361.506 86.4203C359.222 92.281 355.993 96.8503 351.821 100.128C347.649 103.406 342.832 105.045 337.368 105.045ZM337.219 29.9493C333.643 29.9493 330.564 31.3896 327.981 34.2703C325.399 37.151 323.412 41.2733 322.021 46.6373C320.73 51.902 320.084 58.309 320.084 65.8583C320.084 73.3083 320.73 79.765 322.021 85.2283C323.412 90.5923 325.399 94.7147 327.981 97.5953C330.663 100.476 333.743 101.916 337.219 101.916C340.795 101.916 343.875 100.476 346.457 97.5953C349.04 94.7147 351.027 90.5923 352.417 85.2283C353.808 79.765 354.503 73.3083 354.503 65.8583C354.503 58.309 353.808 51.902 352.417 46.6373C351.027 41.2733 349.04 37.151 346.457 34.2703C343.875 31.3896 340.795 29.9493 337.219 29.9493Z" fill="#C1C0B6"/>
<path d="M250.793 12.963C250.793 9.685 250.495 7.301 249.899 5.81101C249.303 4.22167 248.16 2.98 246.472 2.086V0.744999L260.478 0V94.615C260.478 96.8997 260.825 98.638 261.521 99.83C262.216 101.022 263.358 101.817 264.948 102.214V103.555H246.472V102.214C248.061 101.817 249.154 101.072 249.75 99.979C250.445 98.787 250.793 96.999 250.793 94.615V12.963ZM285.212 103.555V102.214C286.801 101.817 287.943 101.022 288.639 99.83C289.334 98.638 289.682 96.8997 289.682 94.615V53.044C289.682 46.2893 288.44 41.2233 285.957 37.846C283.473 34.3693 279.798 32.631 274.931 32.631C271.951 32.631 269.12 33.376 266.438 34.866C263.855 36.356 261.62 38.4917 259.733 41.273L259.286 40.528C261.173 36.356 263.905 33.0283 267.481 30.545C271.057 28.0617 274.931 26.82 279.103 26.82C285.659 26.82 290.675 28.906 294.152 33.078C297.628 37.1507 299.367 42.912 299.367 50.362V94.615C299.367 96.999 299.665 98.787 300.261 99.979C300.956 101.072 302.098 101.817 303.688 102.214V103.555H285.212Z" fill="#C1C0B6"/>
<path d="M212 30.0536C215.576 29.4576 220.914 29.0304 223 25.5537C225.185 22.077 226 9.55358 226 3.55358L229.353 3.05371V29.7993H239.783V33.5243H229.353V91.4853C229.353 94.8626 229.899 97.346 230.992 98.9353C232.084 100.425 234.021 101.518 236.803 102.213V103.554H215.198V102.213C216.787 101.816 217.929 101.021 218.625 99.8293C219.32 98.6373 219.668 96.899 219.668 94.6143V42.0173C219.668 34.6322 217.5 31.3946 212 31.3946V30.0536Z" fill="#C1C0B6"/>
<path d="M145.517 3.72461H197.667L198.859 29.0546H197.667C196.276 22.6973 194.488 17.9789 192.303 14.8996C190.217 11.7209 187.734 9.63494 184.853 8.64161C181.972 7.64828 178.744 7.15161 175.168 7.15161H161.013V100.128H175.466C179.241 100.128 182.568 99.7799 185.449 99.0846C188.33 98.2899 190.863 96.8496 193.048 94.7636C195.333 92.6776 197.319 89.7473 199.008 85.9726C200.697 82.0986 202.236 77.1319 203.627 71.0726H205.117L201.839 103.555H145.517V102.214C147.404 101.816 148.696 100.972 149.391 99.6806C150.086 98.3893 150.434 96.4523 150.434 93.8696V13.4096C150.434 10.8269 150.086 8.93961 149.391 7.74761C148.696 6.45628 147.404 5.61194 145.517 5.21461V3.72461ZM156.394 51.4046V48.1266H168.761C173.926 48.1266 177.9 47.1829 180.681 45.2956C183.462 43.3089 185.548 39.7826 186.939 34.7166H188.28V65.8576H186.939C185.846 61.9836 184.406 59.0036 182.618 56.9176C180.929 54.8316 178.943 53.3913 176.658 52.5966C174.373 51.8019 171.741 51.4046 168.761 51.4046H156.394Z" fill="#C1C0B6"/>
</svg>
