<svg width="128" height="128" viewBox="0 0 128 128" fill="none" xmlns="http://www.w3.org/2000/svg">
<rect width="128" height="128" rx="12" fill="#C1C0B6"/>
<rect x="28.3809" y="37.828" width="18" height="18" fill="#B72B38"/>
<path d="M64.3813 37.828H82.3813V55.828H64.3813V37.828Z" fill="#B72B38"/>
<path d="M55.3809 55.8317C55.3809 59.3774 54.6825 62.8883 53.3256 66.1641C51.9687 69.4399 49.9799 72.4164 47.4727 74.9235C44.9656 77.4307 41.9891 79.4195 38.7133 80.7764C35.4375 82.1333 31.9265 82.8317 28.3809 82.8317" stroke="#B72B38" stroke-width="18"/>
<path d="M91.3813 55.8317C91.3813 59.3774 90.683 62.8883 89.3261 66.1641C87.9692 69.4399 85.9804 72.4164 83.4732 74.9235C80.966 77.4307 77.9896 79.4195 74.7138 80.7764C71.438 82.1333 67.927 82.8317 64.3813 82.8317" stroke="#B72B38" stroke-width="18"/>
</svg>
